Coordinates
version=1
nRows=4
nColumns=40
inDegrees=yes

Units are S.I. units (second, meters, Newtons, ...)
If the header above contains a line with 'inDegrees', this indicates whether rotational values are in degrees (yes) or radians (no).

endheader
time	pelvis_tilt	pelvis_list	pelvis_rotation	pelvis_tx	pelvis_ty	pelvis_tz	hip_flexion_r	hip_adduction_r	hip_rotation_r	knee_angle_r	knee_angle_r_beta	ankle_angle_r	subtalar_angle_r	mtp_angle_r	hip_flexion_l	hip_adduction_l	hip_rotation_l	knee_angle_l	knee_angle_l_beta	ankle_angle_l	subtalar_angle_l	mtp_angle_l	lumbar_extension	lumbar_bending	lumbar_rotation	arm_flex_r	arm_add_r	arm_rot_r	elbow_flex_r	pro_sup_r	wrist_flex_r	wrist_dev_r	arm_flex_l	arm_add_l	arm_rot_l	elbow_flex_l	pro_sup_l	wrist_flex_l	wrist_dev_l
     10.34999999999999964473	     -5.26868303815713279192	      0.47072023731210566044	   -175.43902138536418533477	      0.24348958718575403060	      0.68132748960154188023	     -0.92957215048866015383	     46.51593393741470094938	    -44.84766910851995191933	     -9.00353516246775242848	     69.21392847852905561012	      1.20801094019020149872	     13.75213883986066498721	      0.00000000000000000000	      0.00000000000000000000	     53.93242481983065772511	    -46.80805242354653472603	     -4.94729254550397445911	     69.51391230281197408658	      1.21324664562666240109	      3.43650009093688302286	      0.00000000000000000000	      0.00000000000000000000	    -66.97653843666556383596	      4.36145771202326049121	     -5.97277443467335888982	     47.94925643335479747975	      3.63451328769399406582	     16.48029884161259062125	      6.09947306075860673502	     20.96643446283651712747	      0.00000000000000000000	      0.00000000000000000000	     52.32779985750502760311	    -10.10384724676490186823	     60.16893442250654544523	      6.28081841831606624282	     76.40877389230080041216	      0.00000000000000000000	      0.00000000000000000000
     10.35500000000000042633	     -5.14161536688272668982	      0.45675761624446981068	   -175.47458534445101463461	      0.24320645871914231551	      0.68215959624291933050	     -0.92996371204981531644	     46.55133147575327257073	    -44.75675058137369433098	     -9.00759129336168662405	     69.09301301728008581904	      1.20590056727483929677	     13.72075305977704751115	      0.00000000000000000000	      0.00000000000000000000	     53.81240691050882674062	    -46.78652616294224486637	     -5.11688158484072452836	     69.29302250801076468179	      1.20939139142332674481	      3.30452868028716073567	      0.00000000000000000000	      0.00000000000000000000	    -66.94596892521728648262	      4.31241363924583609446	     -5.94933179896116115515	     47.90313843733090948263	      3.55435798991017382065	     16.32996760292194693420	      6.20581678655068191830	     22.02752904273987866191	      0.00000000000000000000	      0.00000000000000000000	     52.30166955900045167027	     -9.87214932410516254890	     58.75933768885228403178	      6.08238586965353444924	     74.64012019492294314205	      0.00000000000000000000	      0.00000000000000000000
     10.35999999999999943157	     -5.12928428625203824964	      0.68254935069290223471	   -175.33133402870507211446	      0.24293501910747128392	      0.68325002493023812011	     -0.92985555430875099781	     45.99204904878070010454	    -44.64219134944411138122	     -9.65297459150973224951	     68.81348972774424055387	      1.20102196553643336685	     13.88051318599652717012	      0.00000000000000000000	      0.00000000000000000000	     53.99751853936590606509	    -46.81722887554474965555	     -4.84104741859929799119	     69.10653418946259307631	      1.20613655624815319101	      2.89111091686853693972	      0.00000000000000000000	      0.00000000000000000000	    -67.07243122422889314294	      4.63917734517797697436	     -6.17624076619148620892	     47.26101152799323301679	      3.16663942696028666290	     15.90922613495091830771	      9.09259937755946978655	     24.14560044693849150121	      0.00000000000000000000	      0.00000000000000000000	     51.72356903300561725700	    -10.95990518599020546731	     56.31536556645443880598	      7.92470418598389247933	     71.77654185949123188948	      0.00000000000000000000	      0.00000000000000000000
     10.36500000000000021316	     -4.94185332736034954593	      0.51448825344365156642	   -175.41902988552126885224	      0.24271051162607867879	      0.68394891396495083313	     -0.93035316012959989873	     46.32916474168126086397	    -44.64589158026642934374	     -9.35134448212417979107	     68.76940832642340240000	      1.20025259994449173817	     13.61766234581838119766	      0.00000000000000000000	      0.00000000000000000000	     53.68029025398514164635	    -46.67472457427899712457	     -5.22923972473012632634	     68.84395053221744831262	      1.20155360686729695274	      3.17324180984861303756	      0.00000000000000000000	      0.00000000000000000000	    -66.90220983035708002262	      4.37112859690878163832	     -5.90437695832360720516	     48.04480677476212946431	      3.54516850424495366667	     16.23366377463094067934	      5.93195733685390180767	     23.56900579356568670164	      0.00000000000000000000	      0.00000000000000000000	     52.29662362486431703701	     -9.69921457257590091672	     57.67020307846230053883	      5.95187148030663859544	     72.03088303002844838829	      0.00000000000000000000	      0.00000000000000000000
